# AST/ASF file generated using VICON BodyLanguage
# -----------------------------------------------
:version 1.10
:name VICON
:units
  mass 1.0
  length 0.45
  angle deg
:documentation
   .ast/.asf automatically generated from VICON data using
   VICON BodyBuilder and BodyLanguage model FoxedUp or BRILLIANT.MOD
:root
   order TX TY TZ RX RY RZ
   axis XYZ
   position 0 0 0  
   orientation 0 0 0 
:bonedata
  begin
     id 1 
     name lhipjoint
     direction 0.700308 -0.549349 0.455834 
     length 2.59063 
     axis 0 0 0  XYZ
  end
  begin
     id 2 
     name lfemur
     direction 0.34202 -0.939693 0  
     length 6.31066  
     axis 0 0 20  XYZ
    dof rx ry rz
    limits (-160.0 20.0)
           (-70.0 70.0)
           (-60.0 70.0)
  end
  begin
     id 3 
     name ltibia
     direction 0.34202 -0.939693 0   
     length 7.36093   
     axis 0 0 20   XYZ
    dof rx
    limits (-10.0 170.0)
  end
  begin
     id 4 
     name lfoot
     direction 0.0905332 -0.248738 0.96433   
     length 2.0233   
     axis -90 7.62852e-016 20   XYZ
    dof rx rz
    limits (-45.0 90.0)
           (-70.0 20.0)
  end
  begin
     id 5 
     name ltoes
     direction 1.53573e-011 -4.21855e-011 1   
     length 1.01524   
     axis -90 7.62852e-016 20   XYZ
    dof rx
    limits (-90.0 20.0)
  end
  begin
     id 6 
     name rhipjoint
     direction -0.61416 -0.607328 0.503944   
     length 2.34332  
     axis 0 0 0  XYZ 
  end
  begin
     id 7 
     name rfemur
     direction -0.34202 -0.939693 0   
     length 6.58548   
     axis 0 0 -20   XYZ
    dof rx ry rz
    limits (-160.0 20.0)
           (-70.0 70.0)
           (-70.0 60.0)
  end
  begin
     id 8 
     name rtibia
     direction -0.34202 -0.939693 0   
     length 7.20707   
     axis 0 0 -20   XYZ
    dof rx
    limits (-10.0 170.0)
 end
 begin
     id 9 
     name rfoot
     direction -0.136772 -0.375778 0.916561   
     length 1.92184  
     axis -90 -7.62852e-016 -20   XYZ
    dof rx rz
    limits (-45.0 90.0)
           (-20.0 70.0)
  end
  begin
     id 10 
     name rtoes
     direction -1.53535e-011 -4.21828e-011 1   
     length 0.951089   
     axis -90 -7.62852e-016 -20   XYZ
    dof rx
    limits (-90.0 20.0)
  end
  begin
     id 11 
     name lowerback
     direction -0.0444974 0.988086 -0.147332   
     length 1.9609   
     axis 0 0 0   XYZ
    dof rx ry rz
    limits (-20.0 45.0)
           (-30.0 30.0)
           (-30.0 30.0)
  end
  begin
     id 12 
     name upperback
     direction 0.00613146 0.999513 0.0306081   
     length 1.94944   
     axis 0 0 0   XYZ
    dof rx ry rz
    limits (-20.0 45.0)
           (-30.0 30.0)
           (-30.0 30.0)
  end
  begin
     id 13 
     name thorax
     direction 0.0254621 0.994518 0.101418   
     length 2.0119   
     axis 0 0 0   XYZ
    dof rx ry rz
    limits (-20.0 45.0)
           (-30.0 30.0)
           (-30.0 30.0)
  end
  begin
     id 14 
     name lowerneck
     direction 0.0168698 0.977854 0.208608   
     length 1.6375   
     axis 0 0 0   XYZ
    dof rx ry rz
    limits (-20.0 45.0)
           (-30.0 30.0)
           (-30.0 30.0)
  end
  begin
     id 15 
     name upperneck
     direction -0.0283988 0.989338 -0.142843   
     length 1.6851   
     axis 0 0 0   XYZ
    dof rx ry rz
    limits (-20.0 45.0)
           (-30.0 30.0)
           (-30.0 30.0)
  end
  begin
     id 16
     name head
     direction -0.0129422 0.99741 -0.0707489  
     length 1.69029  
     axis 0 0 0   XYZ
    dof rx ry rz
    limits (-20.0 45.0)
           (-30.0 30.0)
           (-30.0 30.0)
  end
  begin
     id 17 
     name lclavicle
     direction 0.820295 0.564628 -0.0911715  
     length 3.16484  
     axis 0 0 0   XYZ
    dof ry rz
    limits (-20.0 10.0)
           (0.0 20.0)
  end
  begin
     id 18 
     name lhumerus
     direction 1 -4.48969e-011 1.00186e-027   
     length 5.17853   
     axis 180 -30 -90   XYZ
    dof rx ry rz
    limits (-60.0 90.0)
           (-90.0 90.0)
           (-90.0 90.0)
  end
  begin
     id 19
     name lradius
     direction 1 -4.48966e-011 -1.52922e-027   
     length 3.40399   
     axis 180 -30 -90   XYZ
    dof rx
    limits (-10.0 170.0)
  end
  begin
     id 20
     name lwrist
     direction 1 -4.48981e-011 -3.80893e-027   
     length 1.70199   
     axis 1.1049e-015 90 90   XYZ
    dof ry
    limits (-180.0 0.0)
 end
  begin
     id 21 
     name lhand
     direction 1 -4.48957e-011 -7.61786e-027   
     length 0.708964   
     axis 4.86085e-015 90 90   XYZ
    dof rx rz
    limits (-90.0 90.0)
           (-45.0 45.0)
  end
  begin
     id 22 
     name lfingers
     direction 1 -4.48929e-011 -1.52357e-026   
     length 0.571585   
     axis 9.7217e-015 90 90   XYZ
    dof rx
    limits (0.0 90.0)
  end
  begin
     id 23
     name lthumb
     direction 0.707107 -6.34905e-011 0.707107   
     length 0.820685   
     axis -90 45 2.85299e-015   XYZ
    dof rx rz
    limits (-45.0 45.0)
           (-45.0 45.0)
  end
  begin
     id 24 
     name rclavicle
     direction -0.858602 0.463947 -0.218075   
     length 3.35137  
     axis 0 0 0   XYZ 
    dof ry rz
    limits (-10.0 20.0)
           (-20.0 0.0)
  end
  begin
     id 25 
     name rhumerus
     direction -1 -4.48969e-011 -1.98511e-027  
     length 5.42351   
     axis 180 30 90   XYZ
    dof rx ry rz
    limits (-90.0 60.0)
           (-90.0 90.0)
           (-90.0 90.0)
  end
  begin
     id 26 
     name rradius
     direction -1 -4.48961e-011 -2.82624e-027   
     length 3.42066   
     axis 180 30 90   XYZ
    dof rx
    limits (-10.0 170.0)
  end
  begin
     id 27 
     name rwrist
     direction -1 -4.48966e-011 -3.80893e-027   
     length 1.71033   
     axis 1.1049e-015 -90 -90   XYZ
    dof ry
    limits (-180.0 0.0)
  end
  begin
     id 28
     name rhand
     direction -1 -4.48964e-011 -7.61786e-027   
     length 0.743608   
     axis 4.86085e-015 -90 -90   XYZ
    dof rx rz
    limits (-90.0 90.0)
           (-45.0 45.0)
  end
  begin
     id 29
     name rfingers
     direction -1 -4.48961e-011 -1.52357e-026   
     length 0.599516   
     axis 9.7217e-015 -90 -90   XYZ
    dof rx
    limits (0.0 90.0)
  end
  begin
     id 30
     name rthumb
     direction -0.707107 -6.34913e-011 0.707107   
     length 0.860789   
     axis -90 -45 -2.85299e-015   XYZ
    dof rx rz
    limits (-45.0 45.0)
           (-45.0 45.0)
  end
:hierarchy
  begin
    root lhipjoint rhipjoint lowerback
    lhipjoint lfemur
    lfemur ltibia
    ltibia lfoot
    lfoot ltoes
    rhipjoint rfemur
    rfemur rtibia
    rtibia rfoot
    rfoot rtoes
    lowerback upperback
    upperback thorax
    thorax lowerneck lclavicle rclavicle
    lowerneck upperneck
    upperneck head
    lclavicle lhumerus
    lhumerus lradius
    lradius lwrist
    lwrist lhand lthumb
    lhand lfingers
    rclavicle rhumerus
    rhumerus rradius
    rradius rwrist
    rwrist rhand rthumb
    rhand rfingers
  end

#!OML:ASF E:\mmandel\Project 1\Capture day 1\Session 2\Subject.ASF
:FULLY-SPECIFIED
:DEGREES
169
root -5.05618 1.63507 -1.46106 -45.5721 79.4314 52.9269
lowerback 13.7668 -0.682641 6.30699
upperback 6.3216 0.477018 7.28244
thorax -1.05554 0.487398 4.0351
lowerneck -13.5922 -4.31479 -12.7674
upperneck 39.9162 -6.85224 12.7889
head 18.1977 -2.22356 7.4053
rclavicle -3.49861e-014 5.36719e-015
rhumerus -9.69156 40.6923 -34.3751
rradius 35.4472
rwrist 2.05268
rhand 19.6951 23.9726
rfingers 7.12502
rthumb 44.251 0.183936
lclavicle -3.49861e-014 5.36719e-015
lhumerus -14.0576 -35.8986 35.2273
lradius 34.8413
lwrist 22.5673
lhand -16.7278 -22.2967
lfingers 7.12502
lthumb 9.498 7.46924
rfemur -3.97291 -36.4831 7.70609
rtibia 46.5837
rfoot -5.05229 -20.6852
rtoes 3.58856
lfemur -21.2683 18.6898 2.98999
ltibia 76.9855
lfoot 3.28688 -1.61294
ltoes 1.9275
170
root -5.05749 1.63672 -1.46418 -45.5835 79.4135 52.7203
lowerback 13.4597 -0.661163 6.46077
upperback 6.51539 0.471116 7.20656
thorax -0.682409 0.497145 3.86778
lowerneck -13.6829 -4.42967 -13.0632
upperneck 40.0705 -7.13039 13.2834
head 18.4371 -2.3122 7.70086
rclavicle -6.36111e-014 3.67752e-014
rhumerus -9.51687 40.161 -34.8123
rradius 35.1629
rwrist 2.52571
rhand 19.7715 24.083
rfingers 7.12502
rthumb 44.3222 0.321312
lclavicle -6.36111e-014 3.67752e-014
lhumerus -13.3465 -36.3374 35.3686
lradius 34.731
lwrist 22.7619
lhand -16.8459 -22.2592
lfingers 7.12502
lthumb 9.38406 7.51195
rfemur -4.27012 -36.3418 7.97374
rtibia 46.5908
rfoot -5.08363 -20.7672
rtoes 3.58857
lfemur -21.5118 18.7339 2.94444
ltibia 77.047
lfoot 3.10733 -1.58013
ltoes 1.95141
171
root -5.06253 1.63983 -1.46597 -45.6597 79.3777 52.5183
lowerback 13.176 -0.638334 6.66523
upperback 6.74812 0.471147 7.09066
thorax -0.279616 0.51398 3.63038
lowerneck -13.0945 -4.34505 -14.1603
upperneck 39.5102 -7.38178 15.1335
head 18.2002 -2.3503 8.77266
rclavicle 3.18055e-014 -3.22031e-014
rhumerus -8.87163 40.2657 -34.9747
rradius 34.7564
rwrist 2.07692
rhand 20.0693 23.8767
rfingers 7.12502
rthumb 44.5996 0.22113
lclavicle 3.18055e-014 -3.22031e-014
lhumerus -12.5273 -37.1099 35.3642
lradius 34.699
lwrist 23.1339
lhand -16.8106 -21.9399
lfingers 7.12502
lthumb 9.41809 7.82967
rfemur -4.47021 -36.1209 8.22326
rtibia 46.5873
rfoot -5.13163 -20.9261
rtoes 3.92235
lfemur -21.7028 18.7975 2.94298
ltibia 77.1255
lfoot 3.1324 -1.58635
ltoes 1.70753
172
root -5.0681 1.6416 -1.46622 -46.0541 79.3287 51.9921
lowerback 12.9103 -0.579469 7.04257
upperback 6.90921 0.541553 6.91132
thorax 0.0402228 0.568437 3.22081
lowerneck -11.1564 -3.89944 -16.3792
upperneck 37.8133 -7.4799 18.8889
head 17.1153 -2.2842 10.9219
rclavicle -1.90833e-014 6.83819e-014
rhumerus -8.54673 40.5101 -35.321
rradius 34.3863
rwrist 1.36737
rhand 20.3236 23.6142
rfingers 7.12502
rthumb 44.8364 0.050525
lclavicle -1.90833e-014 6.83819e-014
lhumerus -11.5609 -37.8164 35.2149
lradius 34.695
lwrist 23.2549
lhand -16.8321 -21.7498
lfingers 7.12502
lthumb 9.39737 8.0207
rfemur -4.66714 -35.9807 8.51749
rtibia 46.6004
rfoot -5.23451 -21.0254
rtoes 4.18122
lfemur -21.9134 18.8267 3.00639
ltibia 77.2011
lfoot 3.24348 -1.59923
ltoes 1.69647
173
root -5.06948 1.64049 -1.46715 -46.3968 79.2926 51.4447
lowerback 12.6287 -0.549096 7.30966
upperback 7.13547 0.557476 6.78811
thorax 0.437679 0.598732 2.94282
lowerneck -11.0172 -3.90198 -16.6123
upperneck 37.6223 -7.6654 19.6106
head 17.0998 -2.31053 11.3128
rclavicle 5.24792e-014 -1.23048e-013
rhumerus -8.39702 40.0243 -35.8672
rradius 34.0247
rwrist 1.45064
rhand 20.2645 23.7002
rfingers 7.12502
rthumb 44.7814 0.115008
lclavicle 5.24792e-014 -1.23048e-013
lhumerus -10.665 -38.2861 35.1156
lradius 34.689
lwrist 23.2878
lhand -16.9081 -21.7352
lfingers 7.12502
lthumb 9.32405 8.03857
rfemur -4.98847 -35.9021 8.85253
rtibia 46.6405
rfoot -5.26314 -21.1182
rtoes 4.33684
lfemur -22.1813 18.88 3.03458
ltibia 77.2613
lfoot 3.28082 -1.63665
ltoes 0.963327
174
root -5.06755 1.63911 -1.47124 -46.2241 79.2943 51.378
lowerback 12.3479 -0.519329 7.46297
upperback 7.39825 0.557822 6.67908
thorax 0.872188 0.621507 2.74736
lowerneck -10.7899 -3.85977 -17.1152
upperneck 37.2707 -7.76272 20.5187
head 16.9767 -2.32604 11.8473
rclavicle -1.59028e-014 1.2921e-014
rhumerus -8.04111 39.9201 -36.2363
rradius 33.6254
rwrist 1.40198
rhand 19.837 23.7177
rfingers 7.12502
rthumb 44.3832 -0.0207454
lclavicle -1.59028e-014 1.2921e-014
lhumerus -9.7961 -38.6745 35.1717
lradius 34.5624
lwrist 23.2852
lhand -17.0142 -21.6352
lfingers 7.12502
lthumb 9.22164 8.14313
rfemur -5.40771 -35.7881 9.12173
rtibia 46.7057
rfoot -5.20134 -21.2277
rtoes 4.8383
lfemur -22.45 18.9777 2.91022
ltibia 77.2922
lfoot 3.37884 -1.65462
ltoes -0.325725
175
root -5.07035 1.63802 -1.47475 -46.1686 79.2834 51.1869
lowerback 12.0826 -0.51076 7.57667
upperback 7.55775 0.533592 6.59453
thorax 1.18799 0.624942 2.60164
lowerneck -10.3944 -3.83618 -17.5359
upperneck 37.1803 -7.86369 21.1702
head 16.9356 -2.36176 12.274
rclavicle -9.54166e-015 -8.07066e-014
rhumerus -7.683 40.3323 -36.6113
rradius 33.2801
rwrist 1.1357
rhand 19.4025 23.4859
rfingers 7.12502
rthumb 43.9781 -0.405164
lclavicle -9.54166e-015 -8.07066e-014
lhumerus -9.09975 -39.0215 35.4039
lradius 34.3466
lwrist 23.2651
lhand -17.3584 -21.5017
lfingers 7.12502
lthumb 8.88948 8.29108
rfemur -5.81399 -35.6349 9.43267
rtibia 46.7493
rfoot -5.14608 -21.3832
rtoes 5.58396
lfemur -22.7409 19.0593 2.82224
ltibia 77.3247
lfoot 3.52693 -1.67544
ltoes -0.670941
176
root -5.07573 1.63822 -1.47615 -46.3757 79.2682 50.7764
lowerback 11.8663 -0.505646 7.68795
upperback 7.74726 0.510101 6.52016
thorax 1.50947 0.631156 2.46902
lowerneck -9.96345 -3.82854 -17.8344
upperneck 36.9614 -8.02496 21.8441
head 16.8303 -2.40347 12.6543
rclavicle 4.92986e-014 -2.16675e-014
rhumerus -7.32976 40.0288 -37.0877
rradius 32.882
rwrist 1.43829
rhand 19.4035 23.5512
rfingers 7.12502
rthumb 43.979 -0.339491
lclavicle 4.92986e-014 -2.16675e-014
lhumerus -8.27013 -39.7202 35.3677
lradius 34.2805
lwrist 23.6059
lhand -17.5751 -21.5652
lfingers 7.12502
lthumb 8.68043 8.23631
rfemur -6.11616 -35.4629 9.755
rtibia 46.7547
rfoot -5.13755 -21.5987
rtoes 6.02951
lfemur -22.989 19.0896 2.81054
ltibia 77.3615
lfoot 3.55059 -1.76989
ltoes -0.399511
177
root -5.07972 1.64024 -1.47677 -46.8162 79.237 50.1393
lowerback 11.6305 -0.622627 7.60044
upperback 8.03586 0.304569 6.6468
thorax 1.94206 0.544898 2.68075
lowerneck -10.1735 -3.70719 -19.4217
upperneck 36.8958 -7.7753 23.3006
head 17.2597 -2.46507 14.2589
rclavicle 3.49861e-014 -1.59028e-015
rhumerus -6.14895 40.0258 -36.8239
rradius 32.4958
rwrist 1.64089
rhand 19.7526 23.8418
rfingers 7.12502
rthumb 44.3046 0.0734786
lclavicle 3.49861e-014 -1.59028e-015
lhumerus -7.8852 -39.1778 35.939
lradius 33.887
lwrist 22.9081
lhand -17.1885 -21.8583
lfingers 7.12502
lthumb 9.05343 7.92739
rfemur -6.37566 -35.3116 10.105
rtibia 46.7322
rfoot -5.23266 -21.8013
rtoes 6.36159
lfemur -23.2422 19.1036 2.85126
ltibia 77.4118
lfoot 3.57767 -1.89412
ltoes -0.295502
178
root -5.08456 1.64112 -1.47867 -47.0628 79.1896 49.6636
lowerback 11.409 -0.676283 7.47693
upperback 8.30307 0.180223 6.72486
thorax 2.34619 0.494986 2.85158
lowerneck -9.95799 -3.60537 -20.7019
upperneck 36.6771 -7.76133 24.8854
head 17.3941 -2.52772 15.6227
rclavicle -2.22639e-014 -3.97569e-014
rhumerus -5.28413 40.0049 -36.8431
rradius 32.154
rwrist 1.90037
rhand 19.9373 24.0154
rfingers 7.12502
rthumb 44.4766 0.312571
lclavicle -2.22639e-014 -3.97569e-014
lhumerus -7.31729 -37.8052 36.6339
lradius 33.1829
lwrist 21.3031
lhand -16.5375 -22.2607
lfingers 7.12502
lthumb 9.68164 7.49676
rfemur -6.70314 -35.1654 10.4682
rtibia 46.7155
rfoot -5.31365 -22.0158
rtoes 6.45085
lfemur -23.5168 19.1413 2.86596
ltibia 77.4556
lfoot 3.61983 -2.01445
ltoes -0.756106
179
root -5.08708 1.64018 -1.48254 -47.1347 79.1498 49.3758
lowerback 11.2034 -0.829957 7.08323
upperback 8.55756 -0.0938047 6.97366
thorax 2.72945 0.353977 3.36707
lowerneck -9.38811 -2.25591 -1.48324
upperneck 42.4736 -0.832193 -1.46958
head 17.0646 0.260072 -0.21622
rclavicle -3.81667e-014 -2.98177e-014
rhumerus -3.98586 40.6717 -36.3582
rradius 31.9079
rwrist 1.88275
rhand 19.9433 23.9741
rfingers 7.12502
rthumb 44.4823 0.273497
lclavicle -3.81667e-014 -2.98177e-014
lhumerus -7.39322 -36.8642 37.7443
lradius 32.6696
lwrist 20.438
lhand -16.2229 -22.6565
lfingers 7.12502
lthumb 9.98515 7.08665
rfemur -7.05005 -34.9835 10.7975
rtibia 46.7179
rfoot -5.35798 -22.2371
rtoes 6.74933
lfemur -23.7798 19.1935 2.85047
ltibia 77.4927
lfoot 3.72618 -2.2074
ltoes -1.96302
180
root -5.08568 1.64137 -1.48565 -47.2227 79.1295 49.2068
lowerback 11.0988 -0.817109 7.27066
upperback 8.92576 -0.0952052 6.80601
thorax 3.18289 0.386895 3.09527
lowerneck -9.56246 -2.35009 -0.473997
upperneck 42.9196 -0.667007 -2.75387
head 17.3477 0.33621 -0.960118
rclavicle -4.77083e-015 3.81667e-014
rhumerus -3.46945 40.4197 -36.7818
rradius 31.5082
rwrist 1.86668
rhand 20.0252 23.9429
rfingers 7.12502
rthumb 44.5586 0.271495
lclavicle -4.77083e-015 3.81667e-014
lhumerus -6.26445 -37.2624 37.5817
lradius 32.464
lwrist 20.4796
lhand -16.1746 -22.7741
lfingers 7.12502
lthumb 10.0317 6.96681
rfemur -7.18857 -34.7974 10.9697
rtibia 46.711
rfoot -5.46381 -22.3631
rtoes 7.31719
lfemur -23.877 19.2577 2.85997
ltibia 77.4931
lfoot 3.87066 -2.47525
ltoes -3.83144
181
root -5.08789 1.64292 -1.48794 -47.0837 79.1113 49.26
lowerback 10.9366 -0.832755 7.27979
upperback 9.30417 -0.155971 6.73168
thorax 3.67995 0.38202 3.02828
lowerneck -9.20935 -2.29229 -0.731151
upperneck 42.7026 -0.684364 -2.30104
head 17.1355 0.348296 -0.702582
rclavicle -1.59028e-014 1.07344e-014
rhumerus -2.70207 40.0904 -37.0342
rradius 31.133
rwrist 2.01205
rhand 20.248 23.8696
rfingers 7.12502
rthumb 44.7661 0.278482
lclavicle -1.59028e-014 1.07344e-014
lhumerus -5.43931 -37.2687 37.7633
lradius 32.1772
lwrist 20.2341
lhand -16.0507 -22.84
lfingers 7.12502
lthumb 10.1512 6.89514
rfemur -7.32753 -34.5875 11.1135
rtibia 46.6812
rfoot -5.65346 -22.4851
rtoes 7.25612
lfemur -23.9423 19.3251 2.8329
ltibia 77.4615
lfoot 4.05899 -2.608
ltoes -4.8329
182
root -5.0943 1.64316 -1.49024 -47.0875 79.0623 49.1456
lowerback 10.8327 -0.845133 7.25173
upperback 9.66042 -0.204006 6.73514
thorax 4.12354 0.379492 3.06397
lowerneck -8.6644 -2.21263 -1.05009
upperneck 42.2829 -0.666627 -1.83725
head 16.7636 0.361373 -0.42561
rclavicle -3.81667e-014 5.60573e-014
rhumerus -1.88478 40.1193 -37.1049
rradius 30.7967
rwrist 1.95013
rhand 20.2267 23.6314
rfingers 7.12502
rthumb 44.7463 0.0326184
lclavicle -3.81667e-014 5.60573e-014
lhumerus -4.72027 -37.428 38.0131
lradius 31.9606
lwrist 20.0145
lhand -16.0441 -22.9526
lfingers 7.12502
lthumb 10.1576 6.78215
rfemur -7.49028 -34.339 11.3499
rtibia 46.6323
rfoot -5.84356 -22.6505
rtoes 6.94819
lfemur -24.0237 19.3518 2.85054
ltibia 77.4464
lfoot 4.49513 -2.60155
ltoes -3.92465
